<?xml version="1.0" encoding="UTF-8"?>
<svg id="OBJECTS" xmlns="http://www.w3.org/2000/svg" version="1.1" viewBox="0 0 425.2 425.2">
  <!-- Generator: Adobe Illustrator 29.7.1, SVG Export Plug-In . SVG Version: 2.1.1 Build 8)  -->
  <defs>
    <style>
      .st0 {
        fill: #d84c64;
      }

      .st1 {
        fill: #519fd3;
      }

      .st2 {
        fill: #fff;
      }

      .st3 {
        fill: #b2dbf4;
      }

      .st4 {
        fill: #e6838b;
      }

      .st5 {
        fill: #f4f4f4;
        font-family: Montserrat-Bold, Montserrat;
        font-size: 16.67px;
        font-weight: 700;
      }
    </style>
  </defs>
  <path class="st1" d="M212.6,425.2c-85.24,0-158.77-50.17-192.66-122.59-10.06-21.51-16.64-44.97-18.98-69.67C.33,226.24,0,219.46,0,212.6,0,206.11.29,199.69.86,193.36c.7-7.81,1.82-15.49,3.34-23.03,1.09-5.41,2.39-10.75,3.88-16.01C24.69,95.94,65.62,47.81,119.21,21.56c.02-.01.04-.02.06-.03C147.44,7.74,179.12,0,212.6,0s67.13,8.23,95.95,22.83c62.01,31.42,106.55,92.35,115.14,164.31.99,8.35,1.51,16.84,1.51,25.45,0,11.38-.89,22.55-2.62,33.45-1.23,7.8-2.89,15.46-4.95,22.96-1.97,7.2-4.32,14.24-7.01,21.12-29.08,74.21-98.66,128.1-181.56,134.45-5.43.42-10.92.63-16.46.63Z"/>
  <path class="st3" d="M215.66,243.41c-.09-.33-.17-.66-.26-.99-3.04-12.04-2.14-17.72-5.04-37.86-.38-2.65-3.5-24.05-6.69-34.61-8.73-28.87-41.38-53.96-76.4-60.94-37.23-7.42-71.73,6.73-93.17,26.11-17.7,16-25.13,34.31-33.24,58.23.7-7.81,1.82-15.49,3.34-23.03,1.09-5.41,2.39-10.75,3.88-16.01C24.69,95.94,65.62,47.81,119.21,21.56c.02-.01.04-.02.06-.03C147.44,7.74,179.12,0,212.6,0s67.13,8.23,95.95,22.83c62.01,31.42,106.55,92.35,115.14,164.31.99,8.35,1.51,16.84,1.51,25.45,0,11.38-.89,22.55-2.62,33.45-.89,1.62-1.8,3.22-2.72,4.81-14.09,24.13-26.76,44.77-49.11,56.76-58.41,31.35-137.72.93-155.09-64.21Z"/>
  <g>
    <g>
      <path class="st0" d="M300.73,229.32c.99-5.32,1.5-10.81,1.5-16.42,0-49.44-40.08-89.51-89.51-89.51-43.41,0-79.6,30.9-87.78,71.9-.38,1.93-.71,3.88-.97,5.85,0,0,29.38,46.83,73.9,44.7,44.52-2.13-2-62.99,32.65-62.99,46.8,0,70.21,46.48,70.21,46.48Z"/>
      <path class="st4" d="M124.46,197.44c-.99,5.32-1.5,10.81-1.5,16.42,0,49.44,40.08,89.51,89.51,89.51,43.41,0,79.6-30.9,87.78-71.9.38-1.93.71-3.88.97-5.85,0,0-29.38-46.83-73.9-44.7-44.52,2.13,2,62.99-32.65,62.99-46.8,0-70.21-46.48-70.21-46.48Z"/>
    </g>
    <circle class="st2" cx="212.6" cy="213.38" r="34.54"/>
  </g>
  <path class="st0" d="M233.01,204.62l-22.81,22.63c-1.34,1.34-3.49,1.43-4.92.09l-12.08-11c-1.43-1.34-1.52-3.58-.27-5.01,1.34-1.43,3.58-1.52,5.01-.18l9.57,8.77,20.39-20.39c1.43-1.43,3.67-1.43,5.1,0,1.43,1.43,1.43,3.67,0,5.1Z"/>
  <text class="st5" transform="translate(149.08 62.39)"><tspan x="0" y="0">PUBLIC POLICY</tspan></text>
  <text class="st5" transform="translate(145.64 355.88)"><tspan x="0" y="0">PUBLIC SECTOR</tspan><tspan x="7.33" y="20">INSTITUTIONS</tspan></text>
  <text class="st5" transform="translate(182.56 149.12)"><tspan x="0" y="0">FISCAL</tspan><tspan x="-1.18" y="20">POLICY</tspan></text>
  <text class="st5" transform="translate(194.56 279.21)"><tspan x="0" y="0">PFM</tspan></text>
</svg>