<?xml version="1.0" encoding="UTF-8"?>
<svg id="Layer_2" data-name="Layer 2" xmlns="http://www.w3.org/2000/svg" viewBox="0 0 441 455.93">
  <defs>
    <style>
      .cls-1, .cls-2, .cls-3 {
        isolation: isolate;
      }

      .cls-4 {
        fill: #c9e3f6;
      }

      .cls-2 {
        font-size: 20px;
        font-weight: 'bold'
      }

      .cls-2, .cls-3 {
        fill: #fff;
        font-family: Arial-BoldMT, Arial;
        font-weight: 700;
      }

      .cls-5 {
        fill: #fe848d;
      }

      .cls-6 {
        fill: #f74b65;
      }

      .cls-7 {
        fill: #4d9fd2;
      }

      .cls-8 {
        letter-spacing: -.02em;
      }

      .cls-3 {
        font-size: 10px;
      }
    </style>
  </defs>
  <g id="Layer_1-2" data-name="Layer 1">
    <g id="bottleneck_1">
      <path class="cls-4" d="M254.1,2.47c8,5.9,12,7.1,16.4,17,13.1,29.3,8.8,68.7-9.6,94.8-23.1-8.8-56.3-8.5-79.5,0-2.5-27.3-16.2-53.7-37.9-70.5-10.9-8.5-21.7-13.7-35.6-12,5.2-3.9,11.5-7.2,17.3-10C167.1,1.37,203.1-3.03,249.3,1.77"/>
      <path class="cls-4" d="M311.3,152.47c-2.4-1.4-12.7-14-16.4-17.3-8.2-7.2-24.3-17.2-34.1-21,18.5-26.1,22.8-65.5,9.6-94.8-4.4-9.9-8.4-11.1-16.4-17,39.4,5.2,78,24,108,49.9,6.2,5.3,21.8,19.8,24.7,26.6,6.1,14.2-.4,30.7-7.4,43.2-12.4,22.3-33.5,38.7-57.9,46-1.2-2.4-5-6.6-5.7-9"/>
      <path class="cls-4" d="M440.8,225.17l-6.4,10.4c-7.2,9.5-25.5,17.4-36.9,20.1-21.5,5.1-43.1,2.4-63.1-6.5,3.6-21.1,2.3-41.2-4.5-61.5-2.2-6.5-5.1-13.4-8.2-19.5,24.3-7.3,45.5-23.7,57.9-46,7-12.6,13.5-29.1,7.4-43.2,1.9.2,3.3,2.7,4.5,4.2,31.8,39.8,49.2,91.1,49.5,142.1h0l-.2-.1Z"/>
      <path class="cls-4" d="M440.8,225.17c.3,43.5-10.7,86-33.1,123.2-3.4,5.6-11.6,19-16.4,22.3-12.5,8.6-23.6,6.5-37.3,2.5-26.4-7.8-48.5-28.4-59.4-53.5,19.9-17.3,35.2-44.5,39.8-70.5,20.1,9,41.6,11.7,63.1,6.5,11.4-2.7,29.7-10.6,36.9-20.1l6.4-10.4h0Z"/>
      <path class="cls-7" d="M391.3,370.67c-1,3-3.6,5.9-5.6,8.3-23.4,27.5-57,51.1-91,63.5-8,2.9-26.9,9.4-34.7,8.4-20.6-2.5-36.9-36-40.9-54-3.9-17.2-3-33.1.4-50.3,16.5,0,27.6-2.2,42.8-8.2,11.2-4.5,23.1-10.8,32.2-18.8,11,25,33,45.6,59.4,53.5,13.7,4.1,24.9,6.1,37.3-2.5l.1.1Z"/>
      <path class="cls-7" d="M219.6,346.67c-3.4,17.1-4.3,33.1-.4,50.3,4,18,20.3,51.4,40.9,54-.8,1.8-3.4,1.7-5.1,2-48.5,8.6-98.9-2-141.1-26-1.5-3-3.5-5-4.9-8.3-5.2-12.5-2.7-36.8,1.3-49.6,6.2-19.9,20.5-36.5,35.8-50.1,19.5,17.4,47.4,27.6,73.5,27.8v-.1Z"/>
      <path class="cls-7" d="M110.1,261.97c.5,1.9,1.6,4.1,2.2,6,6.4,17.7,19.7,38.5,33.8,51-15.3,13.6-29.5,30.2-35.8,50.1-4,12.9-6.5,37.2-1.3,49.6,1.4,3.3,3.4,5.2,4.9,8.3-44.4-25.2-77.8-64.4-96.8-111.8,4.6-5.5,7.3-12.4,11.2-18.4,9.6-14.4,23.6-26.1,40.1-31.9,13.8-4.8,27.2-5,41.6-3l.1.1Z"/>
      <path class="cls-7" d="M110.1,261.97c.5,1.9,1.6,4.1,2.2,6,6.4,17.7,19.7,38.5,33.8,51-15.3,13.6-29.5,30.2-35.8,50.1-4,12.9-6.5,37.2-1.3,49.6,1.4,3.3,3.4,5.2,4.9,8.3-44.4-25.2-77.8-64.4-96.8-111.8,4.6-5.5,7.3-12.4,11.2-18.4,9.6-14.4,23.6-26.1,40.1-31.9,13.8-4.8,27.2-5,41.6-3l.1.1Z"/>
      <path class="cls-7" d="M120.6,167.47c-15.4,28.3-19.2,63.5-10.5,94.5-14.4-2-27.8-1.8-41.6,3-16.5,5.7-30.6,17.4-40.1,31.9-4,6-6.6,12.9-11.2,18.4-20.9-52.1-22.9-108.5-5.2-162,3.2-1.7,4.9-5.1,8-7.4,14.3-10.5,43-8.9,59.3-4.1,15.7,4.6,30.2,14,41.4,25.7h-.1Z"/>
      <path class="cls-4" d="M107.8,31.67c13.9-1.7,24.7,3.6,35.6,12,21.7,16.8,35.4,43.2,37.9,70.5-.6.2-1.8,1.6-2.2,2.2-21.5,4.9-48.2,32-58.5,51-11.2-11.7-25.8-21.1-41.4-25.7-16.3-4.8-45.1-6.4-59.3,4.1-3.1,2.3-4.8,5.7-8,7.4,14.9-45.3,45-86.3,83.8-113.9,2.6-1.8,9.7-7.3,12.2-7.6h-.1Z"/>

    </g>
    <g id="role_A">
      <path class="cls-6" d="M232.3,199.67c-14.4-6.5-32,.9-38.2,15-5.7-1-10.5-4.6-15.9-6.2-36.3-11-69.1,18.5-65.2,55.4.1,1.2.6,3.2-.7,4-.7-1.9-1.7-4.1-2.2-6-8.7-31-4.9-66.2,10.5-94.5,10.3-19,37-46.1,58.5-51,38.8-8.9,69,26.4,60.4,63.8-1.5,6.5-5.7,12.9-7.1,19.5h-.1Z"/>
      <text class="cls-3" transform="translate(176.3 161.77)"><tspan x="0" y="0">A.</tspan></text>
      <text class="cls-3" transform="translate(123.3 173.77)"><tspan x="0" y="0">Commitment to Feasible</tspan></text>
      <text class="cls-3" transform="translate(166.6 185.77)"><tspan x="0" y="0">Policy</tspan></text>
    </g>
    <g id="role_B">
      <path class="cls-5" d="M315.9,159.27c.7,2.3,4.4,6.5,5.7,9,3.1,6.1,6.1,13,8.2,19.5-2,2.4-.1,6.2-.1,8.6-.7,32.6-30.5,59.3-63.2,50.6-6.7-1.8-12.5-5.6-19.2-7.5,2.5-6.7,2.6-18.6-.9-25-1.3-2.4-2.6-6.2-3.9-5.9s.7.9-.4-1c-.5-.9-8.8-7.4-9.8-7.8,1.5-6.6,5.7-13,7.1-19.5,8.6-37.3-21.6-72.7-60.4-63.8.4-.6,1.7-2,2.2-2.2,23.2-8.5,56.4-8.8,79.5,0,9.9,3.8,25.9,13.8,34.1,21,3.7,3.3,14,15.9,16.4,17.3"/>
      <text class="cls-3" transform="translate(274.6 171.37)"><tspan x="0" y="0">B.</tspan></text>
      <text class="cls-3" transform="translate(265.4 183.37)"><tspan x="0" y="0">Fiscal</tspan></text>
      <text class="cls-3" transform="translate(247.1 195.37)"><tspan x="0" y="0">Sustainability</tspan></text>
    </g>
    <g id="role_C">
      <path class="cls-6" d="M334.3,249.17c-4.5,26-19.9,53.2-39.8,70.5-9.1,7.9-21.1,14.3-32.2,18.8-35.1,6.8-64.1-20.7-61.5-55.9.7-9.4,5.5-17.8,8.3-26.6,14,5.5,32.9-2.4,38.2-16.5,6.6,1.8,12.5,5.7,19.2,7.5,32.7,8.8,62.5-18,63.2-50.6,0-2.4-1.9-6.3.1-8.6,6.8,20.3,8.1,40.4,4.5,61.5v-.1Z"/>
      <text class="cls-3" transform="translate(261.9 267.87)"><tspan x="0" y="0">C.</tspan></text>
      <text class="cls-3" transform="translate(221.9 279.87)"><tspan x="0" y="0">Effective Resource</tspan></text>
      <text class="cls-3" transform="translate(238 291.87)"><tspan x="0" y="0">Mobilization</tspan></text>
      <text class="cls-3" transform="translate(233.9 303.87)"><tspan x="0" y="0">and Distribution</tspan></text>
    </g>
    <g id="role_D">
      <path class="cls-5" d="M194.1,214.67c-5.8,12.9-2.2,27.8,8.6,36.7.7.6,6,4.4,6.4,4.5-2.8,8.8-7.6,17.2-8.3,26.6-2.6,35.2,26.4,62.7,61.5,55.9-15.2,6.1-26.2,8.3-42.8,8.2-26.1-.1-54-10.4-73.5-27.8-14.1-12.5-27.4-33.3-33.8-51,1.3-.8.8-2.8.7-4-3.9-36.9,28.9-66.4,65.2-55.4,5.4,1.6,10.2,5.3,15.9,6.2h0l.1.1Z"/>
      <text class="cls-3" transform="translate(154.3 240.37)"><tspan x="0" y="0">D.</tspan></text>
      <text class="cls-3" transform="translate(128.7 252.37)"><tspan x="0" y="0">Performance and</tspan></text>
      <text class="cls-3" transform="translate(129.6 264.37)"><tspan x="0" y="0">Accountability</tspan></text>
      <text class="cls-3" transform="translate(134 276.37)"><tspan x="0" y="0">in Delivery</tspan></text>
    </g>
    <g class="cls-1">
      <text class="cls-2" transform="translate(153.5 87.67)"><tspan x="0" y="0">PUBLIC POLICY</tspan></text>
    </g>
    <g class="cls-1">
      <text class="cls-2" transform="translate(147 393.87)"><tspan x="0" y="0">PUBLIC SECTOR</tspan></text>
      <text class="cls-2" transform="translate(160.5 415.47)"><tspan x="0" y="0">INSTITUTIONS</tspan></text>
    </g>
  </g>
</svg>