<?xml version="1.0" encoding="UTF-8"?>
<svg id="Layer_1" xmlns="http://www.w3.org/2000/svg" version="1.1" viewBox="0 0 936 936">
  <!-- Generator: Adobe Illustrator 29.7.1, SVG Export Plug-In . SVG Version: 2.1.1 Build 8)  -->
  <defs>
    <style>
      .st0, .st1 {
        fill: #d64c64;
      }

      .st2 {
        font-size: 36.69px;
      }

      .st2, .st3 {
        fill: #f4f4f4;
        font-family: Arial-BoldMT, Arial;
        font-weight: 700;
      }

      .st4 {
        fill: #519fd3;
      }

      .st1, .st5 {
        fill-rule: evenodd;
      }

      .st6 {
        fill: #fff;
      }

      .st3 {
        font-size: 27px;
      }

      .st7 {
        fill: #b2dbf4;
      }

      .st5 {
        fill: #e48188;
      }
    </style>
  </defs>
  <g id='bottleneck_1'>
    <path class="st4" d="M1.89,425.64c17.86-52.67,34.2-92.97,73.17-128.19,47.21-42.66,123.14-73.81,205.11-57.48,77.08,15.35,148.95,70.58,168.17,134.14,7.03,23.25,13.89,70.35,14.73,76.19,6.38,44.33,4.4,56.83,11.09,83.33.18.73.37,1.46.57,2.19,38.23,143.39,212.81,210.34,341.4,141.34,49.21-26.4,77.1-71.85,108.11-124.96,2.04-3.5,4.04-7.02,6-10.58-2.71,17.18-6.36,34.04-10.89,50.54-4.34,15.85-9.51,31.36-15.44,46.48-64,163.37-217.19,281.99-399.67,295.96-11.96.92-24.04,1.38-36.24,1.38-187.65,0-349.5-110.43-424.11-269.85-22.15-47.34-36.62-99-41.77-153.37-1.4-14.74-2.12-29.67-2.12-44.78,0-14.27.64-28.4,1.89-42.35Z"/>
    <path class="st7" d="M474.74,535.83c-.19-.73-.38-1.46-.57-2.19-6.69-26.5-4.71-39-11.09-83.33-.84-5.84-7.7-52.94-14.73-76.19-19.22-63.56-91.09-118.79-168.17-134.14-81.96-16.32-157.9,14.82-205.11,57.48C36.1,332.67,19.76,372.98,1.89,425.64c1.54-17.18,4.01-34.1,7.36-50.7,2.4-11.91,5.26-23.67,8.55-35.24C54.35,211.2,144.44,105.24,262.42,47.45c.04-.03.08-.04.13-.07C324.57,17.03,394.3,0,468,0s147.77,18.11,211.23,50.26c136.51,69.17,234.55,203.29,253.45,361.7,2.19,18.37,3.32,37.07,3.32,56.03,0,25.05-1.97,49.64-5.76,73.63-1.95,3.56-3.95,7.08-6,10.58-31.01,53.11-58.9,98.55-108.11,124.96-128.58,69-303.17,2.06-341.4-141.34Z"/>
    <text class="st2" transform="translate(328.18 111.23)"><tspan x="0" y="0">PUBLIC POLICY</tspan></text>
    <text class="st2" transform="translate(320.6 839.24)"><tspan x="0" y="0">PUBLIC SECTOR</tspan><tspan x="16.14" y="44.03">INSTITUTIONS</tspan></text>
  </g>
  <g id='role_A'>
   <path class="st1" d="M467.84,467.63l-105.54-45.53c-65.63-25.33-140.09,5.52-168.2,70.68-13.88,32.17-13.92,66.81-2.77,97.31-34.14-77.14-34.6-164.79-1.18-242.27,31.41-72.81,88.03-126.97,155.24-156.72,30.49-11.15,65.14-11.1,97.31,2.77,65.17,28.11,96.01,102.57,70.68,168.2l-45.53,105.54h0Z"/>
    <text class="st3" transform="translate(351.36 282.95)"><tspan x="0" y="0">A.</tspan><tspan x="-79.47" y="32.4">Commitment</tspan><tspan x="-106.06" y="64.8">to Feasible Policy</tspan></text>
  </g>
  <g id='role_B'>
   <path class="st5" d="M467.84,467.63l45.53-105.55c25.33-65.63-5.52-140.09-70.68-168.2-32.16-13.88-66.81-13.92-97.31-2.77,77.14-34.13,164.79-34.6,242.26-1.18,72.81,31.41,126.97,88.03,156.72,155.24,11.15,30.49,11.1,65.14-2.77,97.31-28.11,65.17-102.57,96.01-168.2,70.68l-105.55-45.53h0Z"/>
    <text class="st3" transform="translate(614.19 315.35)"><tspan x="0" y="0">B.</tspan><tspan x="-26.5" y="32.4">Fiscal</tspan><tspan x="-83.01" y="64.8">Sustainability</tspan></text>
  </g>
  <g id='role_C'>
      <path class="st1" d="M467.84,467.63l105.55,45.53c65.63,25.33,140.09-5.52,168.2-70.68,13.88-32.17,13.92-66.81,2.77-97.31,34.13,77.14,34.6,164.79,1.18,242.27-31.41,72.81-88.03,126.97-155.24,156.72-30.5,11.15-65.14,11.1-97.31-2.77-65.17-28.11-96.01-102.57-70.68-168.2l45.53-105.54h0Z"/>
    <text class="st3" transform="translate(558.88 563.01)"><tspan x="0" y="0">C.</tspan><tspan x="-115.91" y="32.4">Effective Resource</tspan><tspan x="-86.45" y="64.8">Mobilization and </tspan><tspan x="-70.89" y="97.2">Distribution</tspan></text>
  </g>
  <g id='role_D'>
    <path class="st5" d="M467.84,467.63l-45.53,105.55c-25.33,65.63,5.52,140.09,70.69,168.2,32.16,13.88,66.81,13.92,97.31,2.77-77.14,34.14-164.79,34.6-242.27,1.18-72.81-31.41-126.97-88.03-156.71-155.24-11.14-30.5-11.1-65.15,2.77-97.31,28.11-65.17,102.57-96.02,168.2-70.68l105.54,45.53h0Z"/>
    <text class="st3" transform="translate(293.68 523.64)"><tspan x="0" y="0">D.</tspan><tspan x="-88.47" y="32.4">Performance and </tspan><tspan x="-88.52" y="64.8">Accountability</tspan><tspan x="-59.35" y="97.2">in Delivery</tspan></text>
  </g>
  <g>
    <path class="st6" d="M465.95,391.53c-41.4,0-75.08,33.68-75.08,75.08s33.68,75.08,75.08,75.08,75.08-33.68,75.08-75.08-33.68-75.08-75.08-75.08Z"/>
    <path class="st0" d="M507.92,446.86l-47.98,47.61c-2.82,2.82-7.34,3.01-10.35.19l-25.4-23.15c-3.01-2.82-3.2-7.53-.56-10.54,2.82-3.01,7.53-3.2,10.54-.38l20.13,18.44,42.9-42.9c3.01-3.01,7.72-3.01,10.73,0,3.01,3.01,3.01,7.72,0,10.73Z"/>
  </g>
</svg>